<svg width="20" height="20" viewBox="0 0 20 20" fill="none" xmlns="http://www.w3.org/2000/svg">
<path d="M17.0421 2.94115C15.0046 0.903652 12.1171 -0.271348 8.94208 0.0536524C4.35458 0.516152 0.57958 4.24115 0.0670799 8.82865C-0.62042 14.8911 4.06708 20.0036 9.97958 20.0036C13.9671 20.0036 17.3921 17.6661 18.9921 14.3036C19.3921 13.4661 18.7921 12.5037 17.8671 12.5037C17.4046 12.5037 16.9671 12.7536 16.7671 13.1662C15.3546 16.2036 11.9671 18.1287 8.26708 17.3036C5.49208 16.6912 3.25458 14.4286 2.66708 11.6537C1.61708 6.80365 5.30458 2.50365 9.97958 2.50365C12.0546 2.50365 13.9046 3.36615 15.2546 4.72865L13.3671 6.61615C12.5796 7.40365 13.1296 8.75365 14.2421 8.75365H18.7296C19.4171 8.75365 19.9796 8.19115 19.9796 7.50365V3.01615C19.9796 1.90365 18.6296 1.34115 17.8421 2.12865L17.0421 2.94115Z" fill="white" fill-opacity="0.55"/>
</svg>
